<?xml version="1.0" standalone="no"?>
<!DOCTYPE svg PUBLIC "-//W3C//DTD SVG 20010904//EN"
 "http://www.w3.org/TR/2001/REC-SVG-20010904/DTD/svg10.dtd">
<svg version="1.0" xmlns="http://www.w3.org/2000/svg"
 width="1280.000000pt" height="1280.000000pt" viewBox="0 0 1280.000000 1280.000000"
 preserveAspectRatio="xMidYMid meet">
<metadata>
Created by potrace 1.14, written by Peter Selinger 2001-2017
</metadata>
<g transform="translate(0.000000,1280.000000) scale(0.100000,-0.100000)"
fill="#000000" stroke="none">
<path d="M3670 9423 c-559 -38 -1058 -205 -1510 -506 -395 -263 -727 -623
-966 -1050 -168 -298 -295 -676 -349 -1038 -38 -253 -38 -605 0 -858 54 -362
181 -740 349 -1038 480 -856 1304 -1412 2283 -1539 178 -24 552 -23 728 0 652
87 1214 348 1690 784 154 141 348 368 451 526 27 42 51 76 54 76 3 0 18 -21
35 -48 55 -88 203 -276 297 -379 429 -468 988 -786 1614 -916 519 -109 1066
-77 1576 94 597 199 1133 597 1505 1117 297 415 487 921 544 1452 14 135 14
465 0 600 -57 531 -247 1037 -544 1452 -225 315 -543 614 -869 818 -829 519
-1875 601 -2778 218 -361 -153 -686 -373 -967 -655 -123 -124 -281 -315 -358
-435 -27 -43 -52 -78 -55 -78 -3 1 -33 42 -67 93 -503 750 -1357 1239 -2283
1307 -118 9 -280 10 -380 3z m495 -1202 c364 -68 684 -230 947 -480 339 -322
531 -727 571 -1202 25 -313 -39 -656 -178 -944 -441 -916 -1551 -1302 -2470
-860 -640 308 -1045 953 -1045 1665 0 656 336 1246 907 1591 205 124 477 216
736 249 118 15 407 4 532 -19z m4983 18 c954 -106 1662 -890 1662 -1839 0
-659 -345 -1260 -918 -1597 -330 -194 -744 -284 -1120 -242 -882 98 -1556 771
-1651 1651 -45 408 61 849 285 1191 90 138 163 225 282 338 392 372 933 557
1460 498z"/>
</g>
</svg>
